<?xml version="1.0" encoding="UTF-8"?>
<svg width="60px" height="60px" viewBox="0 0 60 60" version="1.1" xmlns="http://www.w3.org/2000/svg" xmlns:xlink="http://www.w3.org/1999/xlink">
    <!-- Generator: Sketch 52.5 (67469) - http://www.bohemiancoding.com/sketch -->
    <title>Icon only, blue &amp; white</title>
    <desc>Created with Sketch.</desc>
    <defs>
        <linearGradient x1="8.13248116%" y1="5.74378579%" x2="94.1931327%" y2="100%" id="linearGradient-1">
            <stop stop-color="#5A82F6" offset="0%"></stop>
            <stop stop-color="#0009F5" offset="100%"></stop>
        </linearGradient>
    </defs>
    <g id="CVI" stroke="none" stroke-width="1" fill="none" fill-rule="evenodd">
        <g transform="translate(-325.000000, -690.000000)" fill-rule="nonzero" id="Logos">
            <g transform="translate(50.000000, 591.000000)">
                <g id="Icon-only,-blue-&amp;-white" transform="translate(275.000000, 99.000000)">
                    <rect id="Rectangle-Copy" fill="url(#linearGradient-1)" x="0" y="0" width="59.9162011" height="60" rx="21.5999997"></rect>
                    <path d="M29.7697783,41.5384615 L30.6172283,37.5408843 C31.7471617,37.3591763 32.6887728,36.9957601 33.724545,36.54149 C35.2311227,35.8146578 36.4552172,34.7244094 37.3968283,33.270745 C38.2442782,31.9079346 38.7150838,30.2725621 38.7150838,28.5463356 C38.7150838,27.1835251 38.4326005,26.0932768 37.7734727,25.0938825 C37.1143449,24.0944882 36.2668949,23.2768019 35.1369616,22.7316778 C34.7603172,22.5499697 34.2895116,22.3682617 33.8187061,22.2774076 L34.571995,18.4615385 L30.7113894,18.4615385 L30.0522617,21.9139915 L24.4025951,21.9139915 L21.2011173,37.6317383 L26.7566228,37.6317383 L25.9091728,41.4476075 L29.7697783,41.4476075 L29.7697783,41.5384615 Z M23.7434673,34.3609933 L26.1916562,33.6341611 L27.792395,26.0024228 L25.6266895,25.2755906 L28.0748784,25.2755906 L30.5230672,25.2755906 C31.6530005,25.2755906 32.5946116,25.6390067 33.2537394,26.2749849 C33.9128672,27.0018171 34.2895116,27.9103574 34.2895116,29.0006057 C34.2895116,30 34.1011894,30.9085403 33.6303839,31.7262265 C33.1595783,32.5439128 32.5946116,33.179891 31.8413228,33.6341611 C31.0880339,34.0884313 30.2405839,34.3609933 29.2989728,34.3609933 L26.097495,34.3609933 L23.7434673,34.3609933 Z" id="D-Copy" fill="#FFFFFF"></path>
                </g>
            </g>
        </g>
    </g>
</svg>