<?xml version="1.0" encoding="UTF-8"?>
<svg width="120px" height="38px" viewBox="0 0 120 38" version="1.1" xmlns="http://www.w3.org/2000/svg" xmlns:xlink="http://www.w3.org/1999/xlink">
    <!-- Generator: Sketch 50.2 (55047) - http://www.bohemiancoding.com/sketch -->
    <title>DagPay logo</title>
    <desc>Created with Sketch.</desc>
    <defs></defs>
    <g id="Landing-&amp;-registration" stroke="none" stroke-width="1" fill="none" fill-rule="evenodd">
        <g id="DagPay-auth" transform="translate(-669.000000, -207.000000)">
            <g id="DagPay-logo" transform="translate(669.000000, 207.000000)">
                <g id="Dagcoin-logo-with-text" fill-rule="nonzero">
                    <ellipse id="red_background" fill="#FF1F1F" cx="18.8378514" cy="19" rx="18.8378514" ry="19"></ellipse>
                    <path d="M19.3071506,28.12 L19.9998974,24.8286614 C20.9235598,24.6790551 21.6932785,24.3798425 22.539969,24.0058268 C23.7715189,23.4074016 24.7721531,22.5097638 25.5418718,21.3129134 C26.2346186,20.1908661 26.6194779,18.8444094 26.6194779,17.4231496 C26.6194779,16.3011024 26.3885623,15.4034646 25.8497593,14.5806299 C25.3109562,13.7577953 24.6182094,13.0845669 23.694547,12.635748 C23.3866595,12.4861417 23.0018002,12.3365354 22.6169409,12.2617323 L23.2327158,9.12 L20.0768693,9.12 L19.5380662,11.9625197 L14.9197543,11.9625197 L12.3027108,24.9034646 L16.8440509,24.9034646 L16.1513041,28.0451969 L19.3071506,28.0451969 L19.3071506,28.12 Z M16.3052479,22.2105512 L14.3809512,22.2105512 L16.3822197,21.612126 L17.6907415,15.3286614 L15.9203885,14.7302362 L17.9216571,14.7302362 L19.9229256,14.7302362 C20.846588,14.7302362 21.6163066,15.0294488 22.1551097,15.5530709 C22.6939127,16.1514961 23.0018002,16.8995276 23.0018002,17.7971654 C23.0018002,18.62 22.8478565,19.3680315 22.4629971,20.0412598 C22.0781378,20.7144882 21.6163066,21.2381102 21.0005317,21.612126 C20.3847568,21.9861417 19.69201,22.2105512 18.9222913,22.2105512 L16.3052479,22.2105512 Z" id="D" fill="#FFFFFF"></path>
                </g>
                <path d="M45.7320442,13.3145161 L49.8259669,13.3145161 C50.8173776,13.3145161 51.7417084,13.4251781 52.5989871,13.6465054 C53.4562658,13.8678326 54.1852333,14.226028 54.7859116,14.7211022 C55.3865899,15.2161763 55.8239704,15.8597631 56.0980663,16.6518817 C56.3721622,17.4440004 56.4333955,18.4050123 56.281768,19.5349462 C56.1418041,20.5367434 55.829806,21.419127 55.3457643,22.1821237 C54.8617226,22.9451203 54.2639692,23.5857949 53.5524862,24.1041667 C52.8410032,24.6225384 52.0449706,25.0156797 51.1643646,25.2836022 C50.2837586,25.5515246 49.3827548,25.6854839 48.461326,25.6854839 L44,25.6854839 L45.7320442,13.3145161 Z M47.0791897,23.1693548 L48.4963168,23.1693548 C49.1261542,23.1693548 49.7209917,23.1052874 50.2808471,22.9771505 C50.8407026,22.8490137 51.3393164,22.6364262 51.7767035,22.3393817 C52.2140906,22.0423372 52.5785744,21.6521082 52.8701657,21.1686828 C53.1617571,20.6852574 53.3600363,20.0940895 53.4650092,19.3951613 C53.5466548,18.7894235 53.5087485,18.262323 53.3512891,17.8138441 C53.1938298,17.3653651 52.9401491,16.9955212 52.5902394,16.7043011 C52.2403297,16.413081 51.8175286,16.1946692 51.3218232,16.0490591 C50.8261178,15.9034491 50.2925136,15.8306452 49.7209945,15.8306452 L48.111418,15.8306452 L47.0791897,23.1693548 Z M63.087477,13.3145161 L65.3443831,13.3145161 L69.0009208,25.6854839 L65.9217311,25.6854839 L65.2219153,23.0645161 L60.4106814,23.0645161 L59.0110497,25.6854839 L56.0018416,25.6854839 L63.087477,13.3145161 Z M63.6298343,16.9139785 L61.5828729,20.7580645 L64.6095764,20.7580645 L63.6298343,16.9139785 Z M81.5801105,24.811828 C80.7053363,25.2311849 79.8189118,25.5340492 78.9208103,25.7204301 C78.0227088,25.906811 77.1187891,26 76.2090239,26 C75.2409405,26 74.3690953,25.8485678 73.5934622,25.5456989 C72.8178291,25.24283 72.1734218,24.8089186 71.660221,24.2439516 C71.1470201,23.6789846 70.7796205,22.9946277 70.558011,22.1908602 C70.3364016,21.3870928 70.2955794,20.4901483 70.4355433,19.5 C70.5755071,18.5098517 70.87001,17.6129072 71.3190608,16.8091398 C71.7681115,16.0053723 72.3279586,15.3210154 72.9986188,14.7560484 C73.669279,14.1910814 74.4361528,13.75717 75.2992634,13.4543011 C76.1623739,13.1514322 77.0779571,13 78.0460405,13 C79.0374512,13 79.9326234,13.1193984 80.7315838,13.3581989 C81.5305442,13.5969994 82.2041102,14.0076136 82.752302,14.5900538 L80.5303867,16.686828 C80.215468,16.3024174 79.8364049,16.0112017 79.393186,15.813172 C78.9499671,15.6151424 78.3784565,15.516129 77.6786372,15.516129 C77.0954544,15.516129 76.5531026,15.6151424 76.0515654,15.813172 C75.5500282,16.0112017 75.1068159,16.2878566 74.7219153,16.6431452 C74.3370147,16.9984337 74.0191848,17.4206965 73.7684162,17.9099462 C73.5176476,18.399196 73.351443,18.9292086 73.2697974,19.5 C73.1881518,20.0824402 73.2056471,20.615365 73.3222836,21.0987903 C73.4389202,21.5822157 73.6401152,22.0015663 73.9258748,22.3568548 C74.2116343,22.7121434 74.5761181,22.9887983 75.019337,23.186828 C75.4625559,23.3848576 75.9757491,23.483871 76.5589319,23.483871 C77.1537783,23.483871 77.6786349,23.4168914 78.1335175,23.2829301 C78.5884001,23.1489689 78.949968,23.0120975 79.218232,22.8723118 L79.4981584,20.8629032 L77.2762431,20.8629032 L77.6436464,18.3467742 L82.4898711,18.3467742 L81.5801105,24.811828 Z M85.5865562,13.3145161 L90.1878453,13.3145161 C90.8293464,13.3145161 91.4270997,13.3727593 91.9811234,13.4892473 C92.535147,13.6057353 93.0046021,13.8066742 93.3895028,14.0920699 C93.7744034,14.3774656 94.0601587,14.7618703 94.2467772,15.2452957 C94.4333957,15.7287211 94.4742178,16.3373619 94.3692449,17.0712366 C94.264272,17.7934624 94.0601611,18.3991911 93.7569061,18.8884409 C93.453651,19.3776906 93.0775038,19.7679197 92.628453,20.0591398 C92.1794023,20.3503599 91.6662091,20.557123 91.0888582,20.6794355 C90.5115072,20.8017479 89.8962586,20.8629032 89.2430939,20.8629032 L87.2486188,20.8629032 L86.5837937,25.6854839 L83.854512,25.6854839 L85.5865562,13.3145161 Z M87.5810313,18.5564516 L89.4005525,18.5564516 C89.6454893,18.5564516 89.8845906,18.5331544 90.1178637,18.4865591 C90.3511368,18.4399639 90.5669112,18.3613357 90.7651934,18.250672 C90.9634755,18.1400084 91.132596,17.9885762 91.2725599,17.796371 C91.4125237,17.6041657 91.4999998,17.3624567 91.5349908,17.0712366 C91.5816454,16.7567189 91.5437391,16.5033612 91.4212707,16.3111559 C91.2988023,16.1189507 91.1296819,15.9704306 90.9139042,15.8655914 C90.6981266,15.7607522 90.4531935,15.6937725 90.1790976,15.6646505 C89.9050017,15.6355285 89.6396575,15.6209677 89.3830571,15.6209677 L87.9834254,15.6209677 L87.5810313,18.5564516 Z M100.685083,13.3145161 L102.941989,13.3145161 L106.598527,25.6854839 L103.519337,25.6854839 L102.819521,23.0645161 L98.0082873,23.0645161 L96.6086556,25.6854839 L93.5994475,25.6854839 L100.685083,13.3145161 Z M101.22744,16.9139785 L99.1804788,20.7580645 L102.207182,20.7580645 L101.22744,16.9139785 Z M111.619705,20.4086022 L107.963168,13.3145161 L111.357274,13.3145161 L113.334254,17.9448925 L116.763352,13.3145161 L120,13.3145161 L114.348987,20.4086022 L113.61418,25.6854839 L110.884899,25.6854839 L111.619705,20.4086022 Z" id="Dagpay" fill="#282828"></path>
            </g>
        </g>
    </g>
</svg>