<?xml version="1.0" encoding="UTF-8"?>
<svg width="100px" height="100px" viewBox="0 0 100 100" version="1.1" xmlns="http://www.w3.org/2000/svg" xmlns:xlink="http://www.w3.org/1999/xlink">
    <!-- Generator: Sketch 50.2 (55047) - http://www.bohemiancoding.com/sketch -->
    <title>Dagcoin logo@2x</title>
    <desc>Created with Sketch.</desc>
    <defs></defs>
    <g id="Invoice" stroke="none" stroke-width="1" fill="none" fill-rule="evenodd">
        <g id="Payment-flow---Success" transform="translate(-671.000000, -6.000000)" fill-rule="nonzero">
            <g id="Dagcoin-logo" transform="translate(671.000000, 6.000000)">
                <circle id="red_background" fill="#FF1F1F" cx="50" cy="50" r="50"></circle>
                <path d="M49.4715822,74.4949495 L51.298442,65.9210212 C53.734255,65.5312972 55.7640992,64.7518492 57.9969278,63.7775392 C61.2446785,62.2186431 63.883476,59.8802991 65.9133202,56.762507 C67.7401799,53.8395769 68.755102,50.3320608 68.755102,46.6296827 C68.755102,43.7067526 68.1461488,41.3684085 66.7252578,39.2249264 C65.3043669,37.0814444 63.4775071,35.3276863 61.0416941,34.1585143 C60.2297564,33.7687903 59.2148343,33.3790663 58.1999122,33.1842042 L59.8237876,25 L51.5014264,25 L50.0805354,32.4047562 L37.9014703,32.4047562 L31,66.1158832 L42.9760808,66.1158832 L41.149221,74.3000875 L49.4715822,74.3000875 L49.4715822,74.4949495 Z M41.5551898,59.100851 L36.4805793,59.100851 L41.7581742,57.541955 L45.2089094,41.1735465 L40.5402677,39.6146504 L45.8178626,39.6146504 L51.0954575,39.6146504 C53.5312706,39.6146504 55.5611148,40.3940985 56.9820057,41.7581325 C58.4028966,43.3170286 59.2148343,45.2656486 59.2148343,47.6039927 C59.2148343,49.7474747 58.8088655,51.6960948 57.7939434,53.4498529 C56.7790213,55.2036109 55.5611148,56.567645 53.9372394,57.541955 C52.3133641,58.516265 50.4865043,59.100851 48.4566601,59.100851 L41.5551898,59.100851 Z" id="D" fill="#FFFFFF"></path>
            </g>
        </g>
    </g>
</svg>